<?xml version="1.0" encoding="utf-8"?>
<!-- Generator: Adobe Illustrator 24.3.0, SVG Export Plug-In . SVG Version: 6.00 Build 0)  -->
<svg version="1.1" id="Capa_1" xmlns="http://www.w3.org/2000/svg" xmlns:xlink="http://www.w3.org/1999/xlink" x="0px" y="0px"
	 viewBox="0 0 16 16" style="enable-background:new 0 0 16 16;" xml:space="preserve">
<style type="text/css">
	.st0{fill:#FFFFFF;}
</style>
<path d="M12.4,15.9H3.6c-2,0-3.5-1.6-3.5-3.5V3.6c0-2,1.6-3.5,3.5-3.5h8.8c2,0,3.5,1.6,3.5,3.5v8.8C15.9,14.3,14.4,15.9,12.4,15.9z"
	/>
<path class="st0" d="M5.9,4.9C6,4.7,6,4.3,5.9,4.1S5.3,4,5.1,4.1L1.6,7.6c-0.2,0.2-0.2,0.5,0,0.7c0,0,0,0,0,0l3.5,3.5
	c0.2,0.2,0.5,0.2,0.7,0s0.2-0.5,0-0.7L2.7,8L5.9,4.9z M10.1,4.9c-0.2-0.2-0.2-0.5,0-0.7s0.5-0.2,0.7,0l3.5,3.5
	c0.2,0.2,0.2,0.5,0,0.7c0,0,0,0,0,0l-3.5,3.5c-0.2,0.2-0.5,0.2-0.7,0s-0.2-0.5,0-0.7L13.3,8L10.1,4.9z"/>
</svg>
