<?xml version="1.0" encoding="utf-8"?>
<!-- Generator: Adobe Illustrator 24.2.0, SVG Export Plug-In . SVG Version: 6.00 Build 0)  -->
<svg version="1.1" id="Capa_1" xmlns="http://www.w3.org/2000/svg" xmlns:xlink="http://www.w3.org/1999/xlink" x="0px" y="0px"
	 viewBox="0 0 100 100" style="enable-background:new 0 0 100 100;" xml:space="preserve">
<style type="text/css">
	.st0{fill:#EC8800;}
</style>
<g id="logo_3_">
	<g>
		<path class="st0" d="M2.46,86.67v6.27c0,0.6,0.14,1.07,0.43,1.4c0.29,0.33,0.72,0.5,1.3,0.5c0.42,0,0.82-0.09,1.19-0.27
			c0.37-0.18,0.72-0.43,1.05-0.75v-7.13h2.46v9.87h-1.5c-0.32,0-0.53-0.14-0.63-0.43l-0.17-0.79c-0.21,0.21-0.43,0.39-0.66,0.56
			c-0.23,0.17-0.47,0.31-0.72,0.43c-0.26,0.12-0.53,0.21-0.83,0.28c-0.3,0.07-0.61,0.1-0.95,0.1c-0.56,0-1.05-0.09-1.48-0.27
			c-0.43-0.18-0.79-0.44-1.08-0.77c-0.29-0.33-0.51-0.73-0.66-1.19C0.07,94,0,93.49,0,92.94v-6.27H2.46z"/>
		<path class="st0" d="M10.24,96.54v-9.87h1.5c0.32,0,0.53,0.14,0.63,0.43l0.17,0.78c0.21-0.21,0.42-0.39,0.65-0.56
			c0.23-0.17,0.47-0.31,0.73-0.43c0.26-0.12,0.53-0.21,0.82-0.28c0.29-0.06,0.61-0.1,0.95-0.1c0.56,0,1.05,0.09,1.48,0.27
			c0.43,0.18,0.79,0.44,1.08,0.77c0.29,0.33,0.51,0.72,0.66,1.18c0.15,0.46,0.22,0.96,0.22,1.51v6.28h-2.46v-6.28
			c0-0.6-0.14-1.07-0.43-1.4c-0.29-0.33-0.72-0.5-1.3-0.5c-0.42,0-0.82,0.09-1.19,0.28c-0.37,0.19-0.72,0.44-1.05,0.76v7.13H10.24z"
			/>
		<path class="st0" d="M23.26,83.8c0,0.21-0.04,0.4-0.13,0.58c-0.09,0.18-0.2,0.34-0.34,0.47c-0.14,0.13-0.31,0.24-0.5,0.32
			c-0.19,0.08-0.4,0.12-0.62,0.12c-0.21,0-0.41-0.04-0.6-0.12c-0.19-0.08-0.35-0.19-0.49-0.32c-0.14-0.13-0.25-0.29-0.33-0.47
			c-0.08-0.18-0.12-0.37-0.12-0.58c0-0.21,0.04-0.41,0.12-0.6c0.08-0.19,0.19-0.35,0.33-0.48c0.14-0.13,0.3-0.24,0.49-0.32
			c0.19-0.08,0.39-0.12,0.6-0.12c0.22,0,0.42,0.04,0.62,0.12c0.19,0.08,0.36,0.19,0.5,0.32c0.14,0.13,0.26,0.29,0.34,0.48
			C23.22,83.39,23.26,83.59,23.26,83.8z M22.89,86.67v9.87h-2.46v-9.87H22.89z"/>
		<path class="st0" d="M31.56,88.76c-0.07,0.09-0.14,0.16-0.21,0.21c-0.07,0.05-0.17,0.08-0.3,0.08c-0.13,0-0.25-0.04-0.37-0.11
			c-0.12-0.07-0.26-0.16-0.43-0.25c-0.17-0.09-0.36-0.18-0.59-0.25c-0.23-0.07-0.51-0.11-0.85-0.11c-0.43,0-0.81,0.08-1.13,0.23
			c-0.32,0.15-0.6,0.37-0.81,0.65c-0.22,0.28-0.38,0.62-0.48,1.02c-0.11,0.4-0.16,0.85-0.16,1.36c0,0.53,0.06,0.99,0.17,1.4
			c0.12,0.41,0.28,0.75,0.5,1.03c0.22,0.28,0.48,0.49,0.8,0.63c0.31,0.14,0.66,0.22,1.05,0.22c0.39,0,0.71-0.05,0.95-0.14
			c0.24-0.09,0.45-0.2,0.61-0.31c0.17-0.11,0.31-0.21,0.43-0.31c0.12-0.09,0.26-0.14,0.41-0.14c0.2,0,0.35,0.07,0.45,0.22l0.71,0.87
			c-0.27,0.31-0.57,0.57-0.89,0.77c-0.32,0.21-0.65,0.37-0.99,0.5c-0.34,0.13-0.69,0.21-1.06,0.26c-0.36,0.05-0.73,0.08-1.08,0.08
			c-0.63,0-1.22-0.11-1.78-0.34c-0.56-0.23-1.04-0.56-1.46-1c-0.41-0.44-0.74-0.97-0.98-1.6c-0.24-0.63-0.36-1.35-0.36-2.16
			c0-0.72,0.11-1.4,0.32-2.01c0.22-0.62,0.53-1.15,0.95-1.61c0.42-0.45,0.93-0.81,1.55-1.06c0.62-0.26,1.33-0.38,2.13-0.38
			c0.76,0,1.43,0.12,2,0.36c0.57,0.24,1.09,0.58,1.55,1.02L31.56,88.76z"/>
		<path class="st0" d="M36.96,86.52c0.76,0,1.45,0.12,2.07,0.36c0.62,0.24,1.15,0.57,1.59,1.01c0.44,0.44,0.78,0.97,1.01,1.6
			c0.24,0.63,0.36,1.33,0.36,2.11c0,0.78-0.12,1.49-0.36,2.12c-0.24,0.63-0.58,1.16-1.01,1.61c-0.44,0.44-0.97,0.78-1.59,1.02
			c-0.62,0.24-1.31,0.36-2.07,0.36c-0.76,0-1.46-0.12-2.08-0.36c-0.62-0.24-1.16-0.58-1.6-1.02c-0.44-0.44-0.78-0.98-1.02-1.61
			c-0.24-0.63-0.36-1.33-0.36-2.12c0-0.78,0.12-1.48,0.36-2.11c0.24-0.63,0.58-1.16,1.02-1.6c0.44-0.44,0.97-0.77,1.6-1.01
			C35.51,86.64,36.2,86.52,36.96,86.52z M36.96,94.86c0.85,0,1.48-0.28,1.88-0.83c0.41-0.55,0.61-1.36,0.61-2.42
			c0-1.06-0.2-1.88-0.61-2.43c-0.41-0.56-1.04-0.84-1.88-0.84c-0.86,0-1.5,0.28-1.91,0.84c-0.41,0.56-0.62,1.37-0.62,2.43
			c0,1.06,0.21,1.86,0.62,2.42C35.46,94.58,36.1,94.86,36.96,94.86z"/>
		<path class="st0" d="M42.64,96.54v-9.87h1.5c0.32,0,0.53,0.14,0.63,0.43l0.17,0.78c0.21-0.21,0.42-0.39,0.65-0.56
			c0.23-0.17,0.47-0.31,0.73-0.43c0.26-0.12,0.53-0.21,0.82-0.28c0.29-0.06,0.61-0.1,0.95-0.1c0.56,0,1.05,0.09,1.48,0.27
			c0.43,0.18,0.79,0.44,1.08,0.77c0.29,0.33,0.51,0.72,0.66,1.18c0.15,0.46,0.22,0.96,0.22,1.51v6.28h-2.46v-6.28
			c0-0.6-0.14-1.07-0.43-1.4c-0.29-0.33-0.72-0.5-1.3-0.5c-0.42,0-0.82,0.09-1.19,0.28c-0.37,0.19-0.72,0.44-1.05,0.76v7.13H42.64z"
			/>
		<path class="st0" d="M55.29,86.67v10.2c0,0.43-0.06,0.83-0.17,1.21c-0.12,0.38-0.3,0.71-0.56,1c-0.26,0.29-0.59,0.51-1,0.67
			c-0.41,0.16-0.92,0.25-1.52,0.25c-0.23,0-0.45-0.01-0.65-0.04c-0.2-0.03-0.4-0.08-0.61-0.14l0.08-1.28
			c0.02-0.13,0.07-0.21,0.16-0.25c0.09-0.04,0.25-0.05,0.5-0.05c0.25,0,0.45-0.02,0.62-0.07c0.17-0.05,0.3-0.13,0.41-0.23
			c0.1-0.11,0.18-0.25,0.22-0.42c0.04-0.17,0.06-0.39,0.06-0.64v-10.2H55.29z M55.66,83.8c0,0.21-0.04,0.4-0.13,0.58
			c-0.09,0.18-0.2,0.34-0.34,0.47c-0.14,0.13-0.31,0.24-0.5,0.32c-0.19,0.08-0.4,0.12-0.62,0.12c-0.21,0-0.41-0.04-0.6-0.12
			c-0.19-0.08-0.35-0.19-0.49-0.32c-0.14-0.13-0.25-0.29-0.33-0.47c-0.08-0.18-0.12-0.37-0.12-0.58c0-0.21,0.04-0.41,0.12-0.6
			c0.08-0.19,0.19-0.35,0.33-0.48c0.14-0.13,0.3-0.24,0.49-0.32c0.19-0.08,0.39-0.12,0.6-0.12c0.22,0,0.42,0.04,0.62,0.12
			c0.19,0.08,0.36,0.19,0.5,0.32c0.14,0.13,0.26,0.29,0.34,0.48C55.62,83.39,55.66,83.59,55.66,83.8z"/>
		<path class="st0" d="M59,86.67v6.27c0,0.6,0.14,1.07,0.43,1.4c0.29,0.33,0.72,0.5,1.3,0.5c0.42,0,0.82-0.09,1.19-0.27
			c0.37-0.18,0.72-0.43,1.05-0.75v-7.13h2.46v9.87h-1.5c-0.32,0-0.53-0.14-0.63-0.43l-0.17-0.79c-0.21,0.21-0.43,0.39-0.66,0.56
			c-0.23,0.17-0.47,0.31-0.72,0.43c-0.26,0.12-0.53,0.21-0.83,0.28c-0.3,0.07-0.61,0.1-0.95,0.1c-0.56,0-1.05-0.09-1.48-0.27
			c-0.43-0.18-0.79-0.44-1.08-0.77c-0.29-0.33-0.51-0.73-0.66-1.19c-0.15-0.46-0.22-0.96-0.22-1.51v-6.27H59z"/>
		<path class="st0" d="M66.79,96.54v-9.87h1.5c0.32,0,0.53,0.14,0.63,0.43l0.17,0.78c0.21-0.21,0.42-0.39,0.65-0.56
			c0.23-0.17,0.47-0.31,0.73-0.43c0.26-0.12,0.53-0.21,0.82-0.28c0.29-0.06,0.61-0.1,0.95-0.1c0.56,0,1.05,0.09,1.48,0.27
			c0.43,0.18,0.79,0.44,1.08,0.77c0.29,0.33,0.51,0.72,0.66,1.18c0.15,0.46,0.22,0.96,0.22,1.51v6.28h-2.46v-6.28
			c0-0.6-0.14-1.07-0.43-1.4c-0.29-0.33-0.72-0.5-1.3-0.5c-0.42,0-0.82,0.09-1.19,0.28c-0.37,0.19-0.72,0.44-1.05,0.76v7.13H66.79z"
			/>
		<path class="st0" d="M80.17,96.69c-0.88,0-1.56-0.24-2.04-0.73c-0.48-0.48-0.72-1.15-0.72-2v-5.51h-1.03
			c-0.13,0-0.25-0.04-0.34-0.13c-0.1-0.08-0.14-0.21-0.14-0.37v-0.94l1.64-0.26l0.52-2.69c0.03-0.13,0.09-0.23,0.18-0.3
			c0.1-0.07,0.22-0.11,0.36-0.11h1.27v3.11h2.68v1.69h-2.68v5.35c0,0.31,0.08,0.55,0.24,0.72c0.16,0.17,0.37,0.26,0.64,0.26
			c0.15,0,0.28-0.02,0.38-0.05c0.1-0.04,0.19-0.07,0.27-0.11c0.08-0.04,0.14-0.08,0.2-0.11c0.06-0.04,0.12-0.05,0.18-0.05
			c0.07,0,0.13,0.02,0.18,0.05c0.05,0.04,0.1,0.09,0.15,0.16l0.74,1.15c-0.36,0.29-0.77,0.51-1.23,0.65
			C81.15,96.62,80.67,96.69,80.17,96.69z"/>
		<path class="st0" d="M87.6,86.52c0.76,0,1.45,0.12,2.07,0.36c0.62,0.24,1.15,0.57,1.59,1.01c0.44,0.44,0.78,0.97,1.01,1.6
			c0.24,0.63,0.36,1.33,0.36,2.11c0,0.78-0.12,1.49-0.36,2.12c-0.24,0.63-0.58,1.16-1.01,1.61c-0.44,0.44-0.97,0.78-1.59,1.02
			c-0.62,0.24-1.31,0.36-2.07,0.36c-0.76,0-1.46-0.12-2.08-0.36c-0.62-0.24-1.16-0.58-1.6-1.02c-0.44-0.44-0.78-0.98-1.02-1.61
			c-0.24-0.63-0.36-1.33-0.36-2.12c0-0.78,0.12-1.48,0.36-2.11c0.24-0.63,0.58-1.16,1.02-1.6c0.44-0.44,0.97-0.77,1.6-1.01
			C86.14,86.64,86.84,86.52,87.6,86.52z M87.6,94.86c0.85,0,1.48-0.28,1.88-0.83c0.41-0.55,0.61-1.36,0.61-2.42
			c0-1.06-0.2-1.88-0.61-2.43c-0.41-0.56-1.04-0.84-1.88-0.84c-0.86,0-1.5,0.28-1.91,0.84c-0.41,0.56-0.62,1.37-0.62,2.43
			c0,1.06,0.21,1.86,0.62,2.42C86.1,94.58,86.74,94.86,87.6,94.86z"/>
		<path class="st0" d="M99.33,88.6c-0.07,0.1-0.14,0.17-0.21,0.22c-0.07,0.04-0.17,0.06-0.28,0.06c-0.12,0-0.25-0.03-0.38-0.1
			c-0.14-0.06-0.29-0.14-0.47-0.22c-0.18-0.08-0.38-0.15-0.61-0.22c-0.23-0.06-0.5-0.1-0.81-0.1c-0.48,0-0.87,0.1-1.14,0.3
			c-0.28,0.2-0.42,0.46-0.42,0.78c0,0.21,0.07,0.39,0.21,0.53c0.14,0.14,0.33,0.27,0.57,0.38c0.24,0.11,0.5,0.21,0.8,0.29
			c0.3,0.09,0.6,0.18,0.91,0.28c0.31,0.1,0.62,0.22,0.91,0.35c0.3,0.13,0.57,0.3,0.8,0.5c0.24,0.2,0.42,0.44,0.57,0.73
			c0.14,0.28,0.21,0.62,0.21,1.02c0,0.47-0.09,0.91-0.27,1.31c-0.18,0.4-0.44,0.75-0.79,1.04c-0.34,0.29-0.77,0.52-1.28,0.68
			s-1.09,0.25-1.75,0.25c-0.35,0-0.69-0.03-1.03-0.09c-0.33-0.06-0.66-0.15-0.96-0.25c-0.31-0.11-0.59-0.24-0.86-0.38
			c-0.26-0.15-0.49-0.31-0.69-0.48l0.57-0.9c0.07-0.11,0.16-0.19,0.26-0.25s0.23-0.09,0.38-0.09c0.15,0,0.3,0.04,0.43,0.13
			c0.14,0.08,0.29,0.17,0.47,0.27c0.18,0.1,0.39,0.19,0.63,0.27c0.24,0.08,0.55,0.13,0.92,0.13c0.29,0,0.54-0.03,0.75-0.1
			c0.21-0.07,0.38-0.16,0.52-0.26c0.14-0.11,0.24-0.24,0.3-0.38c0.06-0.14,0.09-0.29,0.09-0.45c0-0.23-0.07-0.42-0.21-0.57
			c-0.14-0.15-0.33-0.28-0.57-0.38c-0.24-0.11-0.5-0.21-0.81-0.29c-0.3-0.09-0.61-0.18-0.92-0.28c-0.31-0.1-0.62-0.22-0.92-0.36
			c-0.3-0.14-0.57-0.31-0.81-0.52c-0.24-0.21-0.42-0.47-0.57-0.78c-0.14-0.31-0.21-0.68-0.21-1.12c0-0.4,0.08-0.79,0.25-1.15
			c0.17-0.37,0.41-0.68,0.73-0.96c0.32-0.27,0.72-0.49,1.2-0.65c0.48-0.16,1.04-0.25,1.67-0.25c0.7,0,1.34,0.11,1.92,0.34
			c0.58,0.22,1.06,0.52,1.44,0.88L99.33,88.6z"/>
	</g>
</g>
<g>
	<path class="st0" d="M50.44,60.61c2.65,0,5.02-0.43,7.12-1.28c2.09-0.85,3.86-2.05,5.3-3.6c1.44-1.55,2.55-3.42,3.32-5.62
		c0.76-2.2,1.15-4.67,1.15-7.4V0h13.72v42.71c0,4.24-0.71,8.16-2.12,11.76c-1.41,3.6-3.44,6.71-6.1,9.32
		c-2.65,2.61-5.87,4.65-9.64,6.12c-3.77,1.46-8.03,2.19-12.75,2.19c-4.73,0-8.98-0.73-12.75-2.19c-3.77-1.46-6.98-3.5-9.61-6.12
		c-2.64-2.61-4.66-5.72-6.07-9.32c-1.41-3.6-2.12-7.52-2.12-11.76V0h13.72v42.66c0,2.73,0.38,5.2,1.15,7.4
		c0.77,2.2,1.86,4.09,3.29,5.65c1.43,1.56,3.19,2.77,5.28,3.62C45.42,60.19,47.79,60.61,50.44,60.61z"/>
</g>
</svg>
